name D:\school\WTK\thesis\model\3dpredictsim\Results\debug_batch\Pog_s1_tmt_aCst_d05_k800_ig24_pas.mot
datacolumns 128
datarows 4
range 0.00000000 0.03342932
endheader
time	pelvis_tilt	pelvis_list	pelvis_rotation	pelvis_tx	pelvis_ty	pelvis_tz	hip_flexion_l	hip_adduction_l	hip_rotation_l	hip_flexion_r	hip_adduction_r	hip_rotation_r	knee_angle_l	knee_angle_r	ankle_angle_l	ankle_angle_r	subtalar_angle_l	subtalar_angle_r	tmt_angle_l	tmt_angle_r	mtp_angle_l	mtp_angle_r	lumbar_extension	lumbar_bending	lumbar_rotation	arm_flex_l	arm_add_l	arm_rot_l	arm_flex_r	arm_add_r	arm_rot_r	elbow_flex_l	elbow_flex_r	pro_sup_l	pro_sup_r	glut_med1_l/activation	glut_med2_l/activation	glut_med3_l/activation	glut_min1_l/activation	glut_min2_l/activation	glut_min3_l/activation	semimem_l/activation	semiten_l/activation	bifemlh_l/activation	bifemsh_l/activation	sar_l/activation	add_long_l/activation	add_brev_l/activation	add_mag1_l/activation	add_mag2_l/activation	add_mag3_l/activation	tfl_l/activation	pect_l/activation	grac_l/activation	glut_max1_l/activation	glut_max2_l/activation	glut_max3_l/activation	iliacus_l/activation	psoas_l/activation	quad_fem_l/activation	gem_l/activation	peri_l/activation	rect_fem_l/activation	vas_med_l/activation	vas_int_l/activation	vas_lat_l/activation	med_gas_l/activation	lat_gas_l/activation	soleus_l/activation	tib_post_l/activation	flex_dig_l/activation	flex_hal_l/activation	tib_ant_l/activation	per_brev_l/activation	per_long_l/activation	per_tert_l/activation	ext_dig_l/activation	ext_hal_l/activation	ercspn_l/activation	intobl_l/activation	extobl_l/activation	glut_med1_r/activation	glut_med2_r/activation	glut_med3_r/activation	glut_min1_r/activation	glut_min2_r/activation	glut_min3_r/activation	semimem_r/activation	semiten_r/activation	bifemlh_r/activation	bifemsh_r/activation	sar_r/activation	add_long_r/activation	add_brev_r/activation	add_mag1_r/activation	add_mag2_r/activation	add_mag3_r/activation	tfl_r/activation	pect_r/activation	grac_r/activation	glut_max1_r/activation	glut_max2_r/activation	glut_max3_r/activation	iliacus_r/activation	psoas_r/activation	quad_fem_r/activation	gem_r/activation	peri_r/activation	rect_fem_r/activation	vas_med_r/activation	vas_int_r/activation	vas_lat_r/activation	med_gas_r/activation	lat_gas_r/activation	soleus_r/activation	tib_post_r/activation	flex_dig_r/activation	flex_hal_r/activation	tib_ant_r/activation	per_brev_r/activation	per_long_r/activation	per_tert_r/activation	ext_dig_r/activation	ext_hal_r/activation	ercspn_r/activation	intobl_r/activation	extobl_r/activation	
          0.00000000	         -2.92305608	         -2.57266575	          6.32215646	          0.00000000	          0.85447210	         -0.00298658	        -18.26875004	         -2.41796723	          7.57530464	         31.93385184	          3.43277544	         -2.72723814	         -9.19911419	        -15.17458773	         -0.63018127	          5.92576521	         11.79378528	         -3.44302759	          1.99533167	          0.03972627	         23.23523217	         -0.10237150	         -2.01858952	          1.06100403	         -2.18608832	          8.94350586	        -13.47725424	         19.24202876	         -9.88410079	        -13.55291783	          9.58928579	         38.76481446	         12.12361250	         86.51662706	         86.51662706	          0.23839919	          0.08597355	          0.05317940	          0.29456759	          0.19087519	          0.09439132	          0.05000111	          0.05000010	          0.05000008	          0.07374441	          0.09883502	          0.12524792	          0.12580968	          0.05002288	          0.05000197	          0.05000036	          0.29512038	          0.11449984	          0.05000189	          0.05000120	          0.05000074	          0.05000056	          0.37029859	          0.60013384	          0.05000020	          0.05000038	          0.05000008	          0.23912003	          0.12048937	          0.08484321	          0.06817167	          0.28712777	          0.38657183	          0.27341207	          0.24435263	          0.26133336	          0.33632913	          0.05000000	          0.06220530	          0.15474720	          0.05000003	          0.05000000	          0.05000004	          0.05000003	          0.05003938	          0.05000013	          0.05928590	          0.05928593	          0.05000006	          0.05928595	          0.05928594	          0.05928579	          0.25991131	          0.05000017	          0.05928590	          0.05000005	          0.05000010	          0.09898451	          0.24854979	          0.13050637	          0.14916656	          0.13569794	          0.05000007	          0.06218319	          0.05000323	          0.05000017	          0.05000023	          0.17167486	          0.05238416	          0.05000011	          0.40361657	          0.22311450	          0.14795482	          0.06630038	          0.21326662	          0.20630013	          0.18174066	          0.05000001	          0.05000002	          0.05000004	          0.05000000	          0.05000014	          0.05000011	          0.62077421	          0.36220917	          0.20638765	          0.40717398	          0.59374259	          0.32610925	          0.06060764	          0.08942719	          0.09379145	
          0.01114311	         -2.91180375	         -2.66538809	          6.58124056	          0.01726040	          0.85337275	         -0.00276363	        -17.99354943	         -2.73163595	          7.37100424	         31.25231039	          3.81217014	         -2.48581218	        -11.41186985	        -15.43762530	         -1.63435206	          5.30688851	         12.86841872	         -3.95957310	          1.65068057	          0.03484705	         24.26043027	         -0.06955389	         -1.78564394	          1.29612162	         -2.27491388	          8.63684536	        -13.50299326	         19.32314233	        -11.09634590	        -13.54616974	          9.43745318	         40.04880731	         12.11637763	         86.51662706	         86.51662706	          0.20105888	          0.07250756	          0.05928581	          0.24842968	          0.16097854	          0.07960688	          0.05000103	          0.05000014	          0.05000023	          0.06219387	          0.08335461	          0.21621915	          0.21688710	          0.05928804	          0.05928601	          0.05928598	          0.24889592	          0.09657075	          0.05000093	          0.05000432	          0.05000425	          0.05928347	          0.31229895	          0.54962233	          0.05928586	          0.05928578	          0.05000066	          0.20166681	          0.13895033	          0.13895056	          0.13895024	          0.24215511	          0.32602330	          0.23058769	          0.20607983	          0.22040093	          0.28365014	          0.05000000	          0.05246214	          0.16028971	          0.05000002	          0.05000001	          0.05000004	          0.06628194	          0.05928592	          0.05000003	          0.05000000	          0.05000004	          0.14249772	          0.05000003	          0.05000004	          0.05000005	          0.22151869	          0.05000006	          0.05000005	          0.05000004	          0.05000107	          0.08348068	          0.20961965	          0.33757902	          0.22991428	          0.14495396	          0.05000028	          0.05244577	          0.06886299	          0.10747950	          0.12008957	          0.14478569	          0.05000006	          0.05000127	          0.47313930	          0.18816822	          0.12478076	          0.05928609	          0.21199606	          0.22874346	          0.18834724	          0.05000009	          0.05000062	          0.05000000	          0.05928593	          0.07029674	          0.07029639	          0.52733540	          0.38020492	          0.23739176	          0.34339860	          0.56810435	          0.27503097	          0.05111470	          0.07542026	          0.07910095	
          0.02228621	         -2.89665390	         -2.75573096	          6.80602938	          0.03473607	          0.85225260	         -0.00254845	        -17.62169466	         -3.02532922	          7.15359573	         30.39955176	          4.12547934	         -2.20433140	        -13.77210489	        -15.93366541	         -2.81264616	          4.86661131	         13.85442292	         -4.50859323	          1.28718077	         -0.02064940	         25.03748680	         -0.19480824	         -1.53737265	          1.53286932	         -2.35256308	          8.23996420	        -13.53139874	         19.31968827	        -12.29032028	        -13.54406640	          9.34667897	         41.30930374	         12.12523456	         86.51662706	         86.51662706	          0.27466270	          0.06115075	          0.05000000	          0.31624073	          0.13576459	          0.06713812	          0.06457108	          0.05000005	          0.05000003	          0.05245251	          0.07029894	          0.18235296	          0.18291634	          0.05000186	          0.05000030	          0.05000016	          0.25843146	          0.08335170	          0.05000019	          0.05000029	          0.05000016	          0.05000009	          0.26338377	          0.50556362	          0.05000002	          0.05000010	          0.05000003	          0.17007985	          0.11718664	          0.11718683	          0.11718656	          0.20422649	          0.27495846	          0.19447087	          0.17380168	          0.18587970	          0.23922220	          0.08219220	          0.14660351	          0.17602902	          0.05000016	          0.14580918	          0.05000040	          0.07927854	          0.05000000	          0.05000002	          0.27750828	          0.29434447	          0.36993718	          0.36917067	          0.22300584	          0.18629969	          0.18682244	          0.08660634	          0.07814777	          0.07694065	          0.05000174	          0.07040517	          0.17678707	          0.28470426	          0.19390302	          0.16102627	          0.05000010	          0.05000109	          0.05808034	          0.22589301	          0.18472011	          0.14066231	          0.05000012	          0.05000006	          0.39903178	          0.15869560	          0.24251804	          0.05000016	          0.17879129	          0.19291567	          0.15884658	          0.05000025	          0.05000022	          0.05179397	          0.05000002	          0.05928624	          0.05928596	          0.59323036	          0.41304308	          0.20380653	          0.62326492	          0.64244461	          0.32014145	          0.07121121	          0.08335188	          0.06671141	
          0.03342932	         -2.87971012	         -2.83518300	          6.99083579	          0.05217200	          0.85114965	         -0.00230120	        -17.12446357	         -3.28956961	          6.93234909	         29.48370991	          4.42456033	         -1.92892272	        -16.30550438	        -16.38844549	         -4.05180822	          4.56044757	         14.75057761	         -5.08494784	          0.89866941	         -0.02322029	         25.29774372	         -0.19863398	         -1.29841065	          1.76092544	         -2.41898747	          7.80031709	        -13.56644236	         19.25798876	        -13.40573313	        -13.54160831	          9.33270802	         42.51131178	         12.11104659	         86.51662706	         86.51662706	          0.23164246	          0.05157276	          0.05000003	          0.26670816	          0.11449988	          0.05662234	          0.08863381	          0.05000013	          0.05000020	          0.05000003	          0.05928810	          0.20046718	          0.15451437	          0.13894897	          0.05003633	          0.12390698	          0.21795369	          0.07029650	          0.05000022	          0.05000112	          0.05000083	          0.05000071	          0.22213013	          0.43946338	          0.05000007	          0.05000028	          0.05000006	          0.14344034	          0.09883181	          0.09883196	          0.09883172	          0.17223861	          0.23189187	          0.16401101	          0.14657923	          0.15676552	          0.20175301	          0.18247108	          0.13831558	          0.14845776	          0.23226635	          0.24715577	          0.12113766	          0.10983419	          0.05000000	          0.05000001	          0.40631583	          0.45581089	          0.52401280	          0.31134983	          0.26211598	          0.42361869	          0.15756056	          0.12189697	          0.08797959	          0.06488970	          0.05000011	          0.05937769	          0.14909709	          0.24011218	          0.24634122	          0.19164548	          0.05000008	          0.05044610	          0.12645007	          0.30634783	          0.23519474	          0.19216311	          0.05000004	          0.05000004	          0.33653168	          0.13383923	          0.27413377	          0.05000000	          0.22752697	          0.26456490	          0.20778472	          0.05000000	          0.05000001	          0.05000000	          0.05000000	          0.05000031	          0.05000008	          0.71613640	          0.34834838	          0.17188443	          0.62636326	          0.64957621	          0.45290228	          0.09512064	          0.07029652	          0.05626245	
